HIERARCHY
ROOT pelvis
{
  OFFSET 0 100 0
  CHANNELS 6 Xposition Yposition Zposition Zrotation Xrotation Yrotation
  JOINT pelvis_right_femur
  {
    OFFSET -10.78128 -3.44521 -0.5502486
    CHANNELS 3 Zrotation Xrotation Yrotation
    JOINT right_femur_tibia
    {
      OFFSET -0.8047443 -44.0398 -0.1307829
      CHANNELS 3 Zrotation Xrotation Yrotation
      JOINT right_tibia_foot
      {
        OFFSET 3.006224 -47.83518 -5
        CHANNELS 3 Zrotation Xrotation Yrotation
        End Site
        {
          OFFSET 0 -5 15
        }
      }
    }
  }
  JOINT pelvis_left_femur
  {
    OFFSET 10.78128 -3.44521 -0.5502486
    CHANNELS 3 Zrotation Xrotation Yrotation
    JOINT left_femur_tibia
    {
      OFFSET 0.8047443 -44.0398 -0.1307829
      CHANNELS 3 Zrotation Xrotation Yrotation
      JOINT left_tibia_foot
      {
        OFFSET -4.370144 -48.10324 -4.275266
        CHANNELS 3 Zrotation Xrotation Yrotation
        End Site
        {
          OFFSET 0 -5 15
        }
      }
    }
  }
  JOINT pelvis_spine1
  {
    OFFSET 0 6.468898 -3.129235
    CHANNELS 3 Zrotation Xrotation Yrotation
    JOINT spine1
    {
      OFFSET 0 23.15396 4.99043
      CHANNELS 3 Zrotation Xrotation Yrotation
      JOINT spine2
      {
        OFFSET 0 20.79997 -5.064912
        CHANNELS 3 Zrotation Xrotation Yrotation
        JOINT neck
        {
          OFFSET 0 14.38658 9.616178
          CHANNELS 3 Zrotation Xrotation Yrotation
          End Site
          {
            OFFSET 0 20 0
          }
        }
      }
      JOINT right_manubrium
      {
        OFFSET -5.722621 16.35077 3.967754
        CHANNELS 3 Zrotation Xrotation Yrotation
        JOINT right_clavicle
        {
          OFFSET -13.16364 1.694482 -4.693211
          CHANNELS 3 Zrotation Xrotation Yrotation
          JOINT right_humerus
          {
            OFFSET -28.5034 -0.3100689 -2.792744
            CHANNELS 3 Zrotation Xrotation Yrotation
            JOINT right_radius
            {
              OFFSET -25.15693 0.02248979 -1.271978
              CHANNELS 3 Zrotation Xrotation Yrotation
              End Site
              {
                OFFSET -15 0 0
              }
            }
          }
        }
      }
      JOINT left_manubrium
      {
        OFFSET 5.722621 16.35077 3.967754
        CHANNELS 3 Zrotation Xrotation Yrotation
        JOINT left_clavicle
        {
          OFFSET 13.16364 1.694482 -4.693211
          CHANNELS 3 Zrotation Xrotation Yrotation
          JOINT left_humerus
          {
            OFFSET 29.39168 -1.063119 -2.237045
            CHANNELS 3 Zrotation Xrotation Yrotation
            JOINT left_radius
            {
              OFFSET 24.59957 -0.9528479 0.9047498
              CHANNELS 3 Zrotation Xrotation Yrotation
              End Site
              {
                OFFSET 15 -0 -0
              }
            }
          }
        }
      }
    }
  }
}
MOTION
Frames: 13
Frame Time: 0.0416666666667
67.22985 101.3876 252.5487 4.615915 -7.987151 10.35856 -1.332773 21.80524 7.337615 -0 27.43864 -0 5.923808 -12.54485 -0.9359439 -2.751254 -21.70937 -6.859339 -0 25.66431 -0 -7.767934 -7.230871 18.54074 -1.569096 -1.126441 9.487436 -2.291714 9.881471 -2.212261 2.535334 21.90223 3.954923 1.410601 -14.47239 6.220853 0.880147 -21.31104 10.87781 82.51597 19.91715 -7.089246 -0 0 26.39916 -23.0888 10.28752 12.4819 4.486636 -13.56731 -3.124934 -93.72109 23.64608 25.17019 0 0 -9.546458 -4.359167 5.303713 18.37595
69.67082 101.7136 259.0072 4.914881 -8.166973 10.9851 -1.861911 19.78349 6.716035 -0 33.46965 -0 5.92968 -11.26723 -1.660198 -3.943714 -18.36865 -7.874492 -0 25.15828 -0 -7.455722 -7.927736 18.06832 -1.936083 -1.312401 9.028842 -2.267266 9.688568 -2.354959 2.598597 22.12086 3.976354 1.260114 -14.4099 6.463637 1.072901 -20.55572 10.63735 83.25133 19.9459 -7.946637 -0 0 25.02974 -22.74441 10.27801 12.05364 4.34477 -13.46232 -3.242174 -92.94632 24.11922 24.13235 0 0 -9.364375 -4.31284 5.401693 18.41392
72.06698 102.3994 265.3089 5.192189 -8.422933 11.86918 -2.139989 16.48392 5.962399 -0 38.8388 -0 5.742734 -10.15056 -2.598985 -4.947294 -14.19648 -8.698005 -0 24.7616 -0 -7.133509 -8.831131 17.57071 -2.258434 -1.324715 8.344222 -2.147756 9.551961 -2.641495 2.624933 22.43032 4.041832 1.096693 -14.2834 6.73255 1.308292 -19.65807 10.4177 84.18762 20.11947 -9.165488 -0 0 23.25162 -22.25665 10.3285 11.51722 4.253264 -13.64931 -3.418969 -91.79526 24.63333 22.40929 0 0 -9.722957 -4.10338 5.596367 18.22286
74.3703 103.3205 271.3528 5.403621 -8.712516 12.95119 -2.163451 11.9943 5.143666 -0 42.91396 -0 5.365044 -9.352082 -3.673734 -5.673366 -9.451728 -9.290817 -0 24.10779 -0 -6.817804 -9.947649 17.04645 -2.490788 -1.13677 7.432932 -1.941529 9.437692 -3.083992 2.618125 22.80609 4.145827 0.9207158 -14.10119 7.023918 1.508908 -18.69382 10.20365 85.26886 20.39676 -10.63342 -0 0 21.2567 -21.64895 10.4158 10.91638 4.230855 -14.11419 -3.646118 -90.30593 25.14825 20.04337 0 0 -10.61811 -3.731618 5.887058 17.79535
76.55208 104.3049 277.1026 5.544951 -8.937757 14.16473 -2.054703 6.685051 4.357301 -0 45.01762 -0 4.809128 -8.861498 -4.783562 -6.128633 -4.45279 -9.687497 -0 23.09187 -0 -6.534763 -11.23025 16.481 -2.645538 -0.8209592 6.371754 -1.661387 9.298831 -3.673978 2.60773 23.20209 4.262706 0.7494118 -13.88892 7.326212 1.592663 -17.70195 9.954468 86.41983 20.71818 -12.26124 -0 0 19.2105 -20.96033 10.50682 10.28686 4.30346 -14.79923 -3.89763 -88.56804 25.61798 17.15945 0 0 -11.99877 -3.218394 6.267576 17.14367
78.61117 105.153 282.6015 5.625023 -8.981927 15.44316 -1.962471 1.058388 3.679964 -0 44.53664 -0 4.09499 -8.588202 -5.824408 -6.358448 0.4735139 -9.947057 -0 21.76619 -0 -6.314321 -12.6048 15.85563 -2.76647 -0.4926649 5.273742 -1.323386 9.086769 -4.387317 2.633944 23.56497 4.357514 0.6071693 -13.67995 7.623208 1.487969 -16.69991 9.625157 87.55643 21.02339 -13.97271 -0 0 17.24856 -20.23447 10.56727 9.656374 4.49756 -15.62784 -4.138166 -86.69791 26.00505 13.92787 0 0 -13.78753 -2.593406 6.72874 16.29096
80.56415 105.6814 287.9418 5.6488 -8.796592 16.72478 -1.954489 -4.469571 3.127777 -0 41.4307 -0 3.247097 -8.460243 -6.738801 -6.413811 5.105505 -10.11463 -0 20.29679 -0 -6.176537 -13.99638 15.17363 -2.886058 -0.2255026 4.232771 -0.9476696 8.782692 -5.173642 2.717422 23.86162 4.405947 0.5075984 -13.50269 7.897346 1.190382 -15.69826 9.213605 88.61939 21.28023 -15.70174 -0 0 15.42536 -19.49747 10.58133 9.032021 4.810984 -16.53544 -4.33616 -84.80635 26.28777 10.52644 0 0 -15.87456 -1.884386 7.255205 15.27409
82.42966 105.7878 293.2254 5.625602 -8.420459 17.95103 -2.0062 -9.553236 2.674194 -0 36.38902 -0 2.291441 -8.457571 -7.522057 -6.347061 9.313636 -10.20697 -0 19.00627 -0 -6.131531 -15.31985 14.47512 -3.010086 -0.03401796 3.326999 -0.5605649 8.405436 -5.937467 2.851756 24.0808 4.395536 0.4501554 -13.38527 8.12482 0.7813291 -14.70969 8.776606 89.57407 21.48739 -17.37707 -0 0 13.70008 -18.74999 10.5545 8.39094 5.200394 -17.46916 -4.460747 -83.00659 26.46088 7.162452 0 0 -18.09339 -1.117642 7.825198 14.14981
84.21948 105.4843 298.5444 5.570975 -7.939703 19.0622 -2.044317 -13.89311 2.290951 -0 30.47936 -0 1.254199 -8.587152 -8.196836 -6.20653 13.0145 -10.22122 -0 18.29572 -0 -6.181691 -16.47861 13.82286 -3.125174 0.09841632 2.620154 -0.1885122 7.995541 -6.56569 3.015693 24.22508 4.321414 0.4267177 -13.35366 8.279813 0.3807008 -13.75202 8.395763 90.39996 21.66073 -18.92391 -0 0 11.9896 -17.97953 10.50225 7.697487 5.600924 -18.37977 -4.485172 -81.40827 26.53868 4.05696 0 0 -20.24659 -0.3206333 8.41511 12.98628
85.94055 104.8688 303.9772 5.487933 -7.446123 20.00142 -1.986337 -17.29323 1.991726 -0 24.64447 -0 0.1660427 -8.831934 -8.77989 -6.01141 16.14543 -10.16064 -0 18.46719 -0 -6.323408 -17.36484 13.27975 -3.206176 0.1853928 2.129474 0.1529018 7.594667 -6.996251 3.18909 24.31142 4.187665 0.4285817 -13.41481 8.350167 0.06938359 -12.85047 8.121302 91.08896 21.81743 -20.27676 -0 0 10.26603 -17.18381 10.43717 6.944465 5.957637 -19.21204 -4.403811 -80.09791 26.55437 1.389105 0 0 -22.15761 0.4747649 9.003563 11.84955
87.6016 104.0907 309.5906 5.356065 -7.046034 20.72948 -1.725672 -19.59206 1.861437 -0 19.74206 -0 -0.9266213 -9.120531 -9.261136 -5.730513 18.60643 -10.05222 -0 19.77568 -0 -6.554884 -17.80537 12.92603 -3.20778 0.2220122 1.817429 0.4575718 7.247236 -7.230655 3.35581 24.37797 4.007025 0.4482468 -13.55161 8.339184 -0.1219822 -12.04658 7.963779 91.63804 21.97074 -21.3558 -0 0 8.602956 -16.38056 10.36771 6.172377 6.220679 -19.8766 -4.23622 -79.17257 26.55771 -0.6610188 0 0 -23.62843 1.219166 9.568267 10.81961
89.21653 103.3305 315.4388 5.148515 -6.850299 21.23492 -1.151007 -20.63604 2.015312 -0 16.53714 -0 -1.967686 -9.357983 -9.61008 -5.306389 20.25964 -9.937422 -0 22.44314 -0 -6.872892 -17.59817 12.85474 -3.077621 0.1952294 1.621335 0.7231271 6.997793 -7.304227 3.503136 24.47394 3.796207 0.4793926 -13.73372 8.258655 -0.1915874 -11.39236 7.912743 92.04167 22.1309 -22.06915 -0 0 7.134741 -15.60139 10.30046 5.450296 6.342513 -20.26719 -4.016824 -78.73558 26.60492 -1.912825 0 0 -24.4486 1.851094 10.08864 9.985115
90.80087 102.7664 321.5484 4.87282 -6.916983 21.52648 -0.2499133 -20.37218 2.478815 -0 15.26986 -0 -2.918898 -9.511513 -9.803275 -4.735407 20.97816 -9.835685 -0 26.47135 -0 -7.250712 -16.68306 13.12347 -2.806339 0.1163663 1.508632 0.9469014 6.872007 -7.249578 3.625322 24.63097 3.569647 0.5180199 -13.93342 8.123527 -0.1551796 -10.93119 7.954095 92.28325 22.30427 -22.3552 -0 0 5.973682 -14.88606 10.23622 4.840593 6.301242 -20.3361 -3.780047 -78.83068 26.73054 -2.286497 0 0 -24.50772 2.324924 10.55489 9.400613
